<svg width="128" height="128" viewBox="0 0 512 512" fill="none" xmlns="http://www.w3.org/2000/svg">
<path d="M470.077 399.906C459.214 407.935 447.248 413.76 434.968 414.705C388.366 418.641 328.537 372.826 290.594 367.945C252.651 363.065 231.397 388.728 222.266 403.684C216.598 412.816 215.565 426.171 215.88 436.877C216.195 441.128 216.44 445.927 217.857 452.176C220.349 463.171 247.928 506.651 311.534 501.14C380.965 495.157 421.27 457.844 462.362 409.037L467.558 402.74C468.345 401.795 469.29 400.693 470.077 399.748V399.906Z" fill="#58C5F3"/>
<path d="M254.36 327.009C264.751 320.711 275.772 316.461 286.792 316.461C328.829 316.461 378.581 361.961 412.115 369.203C445.65 376.445 468.322 354.407 475.879 342.438C483.436 330.47 484.351 319.083 483.908 310.95C483.465 302.817 483.75 303.236 483.436 299.457C480.602 292.057 460.765 248.604 403.614 248.604C341.268 248.604 302.38 278.832 261.918 319.294L256.722 324.49C255.935 325.277 254.989 326.222 254.202 327.009H254.36Z" fill="#9DE2FF"/>
<path d="M33 295.525L33.0039 298.435C33.0039 355.9 79.603 400.695 136.911 400.695C161.472 400.695 181.919 393.92 199.71 379.75L200.76 378.767C200.76 378.767 201.417 378.226 201.934 377.709C202.092 377.551 202.406 377.236 202.564 377.079C202.721 376.921 203.036 376.607 203.193 376.449C205.24 374.56 208.861 371.096 214.214 366.058C223.031 357.714 236.256 344.804 254.047 327.17C254.834 326.383 255.779 325.438 256.566 324.651L261.762 319.456C302.066 279.151 340.954 248.765 403.458 248.765C460.609 248.765 480.447 292.218 483.281 299.618C477.613 200.588 408.181 118.719 315.448 94.3157C315.448 94.3157 313.717 93.8434 311.828 93.3711C302.224 90.5371 276.088 81.4054 276.088 66.1337V17.9569C276.088 17.9569 278.339 5.10628 264.28 14.3358C228.069 38.1094 197.211 89.9074 169.186 105.179C169.186 105.179 168.871 105.336 168.714 105.494C100.227 134.778 48.7375 195.182 35.1977 270.596C33.7807 278.31 33.4762 282.269 33.0039 290.141L33 295.525Z" fill="#58C5F3"/>
<path d="M255.495 271.349C255.495 271.349 233.823 287.905 211.723 306.586C195.173 320.575 178.961 335.939 168.271 345.434C161.503 351.444 152.822 349.176 150.474 338.121C146.853 327.1 153.471 285.764 184.172 265.769C214.873 245.774 246.204 245.774 257.697 253.331C267.415 259.721 263.743 264.203 262.106 265.769C260.469 267.335 255.495 271.349 255.495 271.349Z" fill="white"/>
</svg>
